<svg xmlns="http://www.w3.org/2000/svg" xmlns:xlink="http://www.w3.org/1999/xlink" width="500" zoomAndPan="magnify" viewBox="0 0 375 374.999991" height="500" preserveAspectRatio="xMidYMid meet" version="1.0"><defs><g/><clipPath id="19f8131378"><path d="M 117 90.839844 L 171.75 90.839844 L 171.75 144 L 117 144 Z M 117 90.839844 " clip-rule="nonzero"/></clipPath><clipPath id="32a75dbe69"><path d="M 37.5 117 L 164 117 L 164 284.238281 L 37.5 284.238281 Z M 37.5 117 " clip-rule="nonzero"/></clipPath></defs><g clip-path="url(#19f8131378)"><path fill="#ffffff" d="M 171.351562 104.839844 C 171.421875 105.207031 171.355469 105.589844 171.183594 105.980469 C 170.34375 107.878906 166.867188 109.949219 163.179688 111.699219 C 162.507812 112.015625 161.832031 112.320312 161.160156 112.613281 C 156.96875 114.445312 153.078125 115.734375 153.078125 115.734375 L 152.535156 120.441406 L 154.46875 119.789062 C 155.265625 119.523438 156.132812 119.953125 156.402344 120.75 C 156.667969 121.550781 156.238281 122.417969 155.441406 122.683594 L 152.152344 123.789062 L 149.972656 142.773438 L 147.839844 143.347656 L 144.242188 130.257812 L 143.265625 126.710938 L 142.816406 126.859375 C 142.332031 127.023438 141.796875 126.9375 141.390625 126.625 C 140.402344 125.875 140.65625 124.328125 141.832031 123.933594 L 142.449219 123.726562 L 141.449219 120.078125 L 139.84375 120.664062 L 131.039062 123.878906 L 127.371094 132.511719 L 126.859375 133.117188 L 126.046875 134.085938 L 125.882812 133.132812 L 123.941406 122.011719 L 117.050781 113.085938 L 119.382812 113.007812 L 128.34375 117.0625 L 136.453125 113.835938 L 137.269531 113.511719 L 138.734375 112.929688 L 136.277344 108.878906 L 135.097656 109.277344 C 134.609375 109.4375 134.078125 109.351562 133.671875 109.039062 C 132.683594 108.289062 132.9375 106.746094 134.109375 106.347656 L 134.632812 106.171875 L 125.824219 91.660156 L 127.671875 90.800781 L 143.792969 103.1875 C 143.894531 103.125 144 103.066406 144.121094 103.027344 L 147.722656 101.816406 C 148.519531 101.550781 149.386719 101.980469 149.652344 102.777344 C 149.921875 103.578125 149.492188 104.441406 148.691406 104.710938 L 146.664062 105.394531 L 150.410156 108.273438 C 150.410156 108.273438 153.933594 106.871094 158.097656 105.578125 C 158.601562 105.417969 159.121094 105.261719 159.640625 105.109375 C 165.039062 103.53125 170.894531 102.425781 171.351562 104.839844 " fill-opacity="1" fill-rule="nonzero"/></g><g clip-path="url(#32a75dbe69)"><path fill="#ffffff" d="M 118.066406 130.628906 C 118.066406 130.628906 117.078125 131.007812 115.226562 131.710938 C 113.339844 132.417969 110.742188 133.441406 107.394531 134.792969 C 104.054688 136.179688 99.992188 137.859375 95.472656 140.003906 C 90.949219 142.140625 85.898438 144.644531 80.664062 147.75 C 75.441406 150.859375 69.96875 154.507812 64.84375 159 C 59.75 163.507812 54.972656 168.816406 51.507812 175.183594 C 48.09375 181.414062 46.21875 188.84375 46.335938 196.46875 C 46.410156 200.285156 46.953125 204.152344 47.914062 207.96875 C 48.902344 211.773438 50.316406 215.519531 52.066406 219.128906 C 55.570312 226.355469 60.492188 232.960938 66.125 238.699219 C 67.535156 240.136719 69 241.511719 70.496094 242.84375 L 70.773438 243.09375 C 70.6875 243.027344 70.792969 243.113281 70.792969 243.113281 L 70.867188 243.175781 L 71.015625 243.296875 L 71.609375 243.789062 L 72.796875 244.769531 C 73.585938 245.425781 74.375 246.078125 75.160156 246.726562 C 76.742188 247.914062 78.316406 249.09375 79.878906 250.261719 C 81.515625 251.371094 83.140625 252.472656 84.753906 253.566406 C 91.3125 257.796875 98.027344 261.351562 104.550781 264.402344 C 105.367188 264.785156 106.175781 265.167969 106.980469 265.542969 C 107.796875 265.898438 108.605469 266.25 109.410156 266.601562 C 111.019531 267.289062 112.589844 268.015625 114.175781 268.625 C 115.75 269.261719 117.300781 269.882812 118.824219 270.496094 C 120.363281 271.066406 121.871094 271.628906 123.351562 272.179688 C 124.828125 272.746094 126.292969 273.238281 127.71875 273.734375 C 129.152344 274.222656 130.539062 274.726562 131.910156 275.167969 C 134.65625 276.042969 137.246094 276.925781 139.714844 277.640625 C 142.175781 278.382812 144.480469 279.085938 146.625 279.675781 C 148.769531 280.277344 150.734375 280.847656 152.523438 281.308594 C 154.3125 281.78125 155.90625 282.207031 157.292969 282.574219 C 158.6875 282.921875 159.871094 283.21875 160.832031 283.460938 C 162.753906 283.941406 163.777344 284.199219 163.777344 284.199219 C 163.777344 284.199219 162.742188 283.996094 160.796875 283.613281 C 159.824219 283.421875 158.625 283.183594 157.214844 282.910156 C 155.808594 282.609375 154.195312 282.269531 152.382812 281.886719 C 150.570312 281.519531 148.578125 281.050781 146.398438 280.558594 C 144.21875 280.078125 141.878906 279.492188 139.375 278.875 C 136.863281 278.285156 134.21875 277.53125 131.417969 276.796875 C 130.019531 276.421875 128.597656 275.988281 127.132812 275.574219 C 125.671875 275.148438 124.171875 274.726562 122.660156 274.234375 C 121.140625 273.757812 119.589844 273.265625 118.011719 272.769531 C 116.445312 272.230469 114.847656 271.683594 113.222656 271.125 C 111.589844 270.589844 109.964844 269.941406 108.300781 269.324219 C 107.46875 269.011719 106.628906 268.699219 105.785156 268.382812 C 104.949219 268.039062 104.109375 267.695312 103.261719 267.351562 C 96.484375 264.59375 89.445312 261.328125 82.46875 257.3125 C 80.742188 256.269531 79.003906 255.21875 77.253906 254.160156 C 75.535156 253.003906 73.804688 251.835938 72.0625 250.664062 C 71.246094 250.054688 70.425781 249.445312 69.601562 248.832031 L 68.367188 247.914062 L 67.75 247.453125 L 67.386719 247.175781 L 67.078125 246.925781 C 65.421875 245.597656 63.789062 244.21875 62.210938 242.765625 C 55.894531 236.953125 50.207031 230.121094 45.914062 222.335938 C 43.773438 218.445312 41.96875 214.335938 40.621094 210.054688 C 39.296875 205.769531 38.429688 201.320312 38.113281 196.824219 C 37.507812 187.828125 39.257812 178.75 43.0625 170.871094 C 43.550781 169.867188 44.066406 168.78125 44.53125 167.988281 L 45.242188 166.699219 L 45.328125 166.539062 L 45.375 166.460938 C 45.328125 166.53125 45.484375 166.269531 45.488281 166.265625 L 45.703125 165.933594 L 46.128906 165.265625 C 46.703125 164.378906 47.273438 163.496094 47.839844 162.621094 C 48.414062 161.742188 49.070312 160.953125 49.679688 160.121094 C 52.125 156.800781 54.878906 153.914062 57.609375 151.179688 C 63.148438 145.796875 68.953125 141.5 74.433594 137.835938 C 79.929688 134.1875 85.160156 131.25 89.828125 128.746094 C 94.496094 126.234375 98.640625 124.265625 102.050781 122.636719 C 105.484375 121.039062 108.234375 119.792969 110.019531 119.019531 C 111.832031 118.21875 112.800781 117.792969 112.800781 117.792969 L 118.066406 130.628906 " fill-opacity="1" fill-rule="nonzero"/></g><g fill="#ffffff" fill-opacity="1"><g transform="translate(147.157663, 206.614863)"><g><path d="M 4.578125 -38.21875 L 33.53125 -38.21875 C 34.644531 -38.21875 35.460938 -38.085938 35.984375 -37.828125 C 36.503906 -37.566406 36.847656 -37.160156 37.015625 -36.609375 C 37.191406 -36.054688 37.28125 -35.328125 37.28125 -34.421875 C 37.28125 -33.515625 37.191406 -32.789062 37.015625 -32.25 C 36.847656 -31.71875 36.554688 -31.347656 36.140625 -31.140625 C 35.515625 -30.828125 34.628906 -30.671875 33.484375 -30.671875 L 23.546875 -30.671875 L 23.546875 -4.484375 C 23.546875 -3.679688 23.519531 -3.085938 23.46875 -2.703125 C 23.414062 -2.328125 23.257812 -1.882812 23 -1.375 C 22.738281 -0.875 22.273438 -0.519531 21.609375 -0.3125 C 20.953125 -0.101562 20.082031 0 19 0 C 17.925781 0 17.066406 -0.101562 16.421875 -0.3125 C 15.785156 -0.519531 15.335938 -0.875 15.078125 -1.375 C 14.816406 -1.882812 14.660156 -2.335938 14.609375 -2.734375 C 14.554688 -3.128906 14.53125 -3.726562 14.53125 -4.53125 L 14.53125 -30.671875 L 4.53125 -30.671875 C 3.414062 -30.671875 2.597656 -30.800781 2.078125 -31.0625 C 1.554688 -31.320312 1.207031 -31.726562 1.03125 -32.28125 C 0.863281 -32.84375 0.78125 -33.570312 0.78125 -34.46875 C 0.78125 -35.375 0.863281 -36.09375 1.03125 -36.625 C 1.207031 -37.164062 1.503906 -37.539062 1.921875 -37.75 C 2.546875 -38.0625 3.429688 -38.21875 4.578125 -38.21875 Z M 4.578125 -38.21875 "/></g></g></g><g fill="#ffffff" fill-opacity="1"><g transform="translate(185.218146, 206.614863)"><g><path d="M 31.296875 -6.453125 C 31.816406 -5.203125 32.078125 -4.300781 32.078125 -3.75 C 32.078125 -2.425781 31 -1.316406 28.84375 -0.421875 C 27.738281 0.0664062 26.847656 0.3125 26.171875 0.3125 C 25.492188 0.3125 24.9375 0.148438 24.5 -0.171875 C 24.070312 -0.503906 23.753906 -0.847656 23.546875 -1.203125 C 23.191406 -1.859375 21.835938 -5 19.484375 -10.625 L 17.859375 -10.515625 L 11.296875 -10.515625 L 11.296875 -4.640625 C 11.296875 -3.835938 11.269531 -3.234375 11.21875 -2.828125 C 11.164062 -2.429688 11.003906 -1.972656 10.734375 -1.453125 C 10.242188 -0.515625 8.890625 -0.046875 6.671875 -0.046875 C 4.234375 -0.046875 2.804688 -0.691406 2.390625 -1.984375 C 2.179688 -2.566406 2.078125 -3.46875 2.078125 -4.6875 L 2.078125 -33.59375 C 2.078125 -34.382812 2.101562 -34.976562 2.15625 -35.375 C 2.207031 -35.78125 2.375 -36.242188 2.65625 -36.765625 C 3.144531 -37.703125 4.5 -38.171875 6.71875 -38.171875 L 17.96875 -38.171875 C 21.019531 -38.171875 23.988281 -37.0625 26.875 -34.84375 C 28.257812 -33.757812 29.398438 -32.296875 30.296875 -30.453125 C 31.203125 -28.617188 31.65625 -26.578125 31.65625 -24.328125 C 31.65625 -20.398438 30.351562 -17.171875 27.75 -14.640625 C 28.519531 -12.796875 29.703125 -10.066406 31.296875 -6.453125 Z M 11.296875 -19.734375 L 17.96875 -19.734375 C 18.976562 -19.734375 19.984375 -20.113281 20.984375 -20.875 C 21.992188 -21.644531 22.5 -22.789062 22.5 -24.3125 C 22.5 -25.84375 21.992188 -27 20.984375 -27.78125 C 19.984375 -28.5625 18.941406 -28.953125 17.859375 -28.953125 L 11.296875 -28.953125 Z M 11.296875 -19.734375 "/></g></g></g><g fill="#ffffff" fill-opacity="1"><g transform="translate(218.071991, 206.614863)"><g><path d="M 2.078125 -33.59375 C 2.078125 -34.382812 2.101562 -34.976562 2.15625 -35.375 C 2.207031 -35.78125 2.375 -36.242188 2.65625 -36.765625 C 3.144531 -37.703125 4.5 -38.171875 6.71875 -38.171875 C 9.144531 -38.171875 10.585938 -37.53125 11.046875 -36.25 C 11.210938 -35.65625 11.296875 -34.75 11.296875 -33.53125 L 11.296875 -4.578125 C 11.296875 -3.742188 11.269531 -3.132812 11.21875 -2.75 C 11.164062 -2.375 11.003906 -1.925781 10.734375 -1.40625 C 10.242188 -0.46875 8.890625 0 6.671875 0 C 4.234375 0 2.804688 -0.660156 2.390625 -1.984375 C 2.179688 -2.535156 2.078125 -3.421875 2.078125 -4.640625 Z M 2.078125 -33.59375 "/></g></g></g><g fill="#ffffff" fill-opacity="1"><g transform="translate(231.45304, 206.614863)"><g><path d="M 30.25 -30.453125 C 31.15625 -28.617188 31.609375 -26.570312 31.609375 -24.3125 C 31.609375 -22.0625 31.15625 -20.023438 30.25 -18.203125 C 29.351562 -16.378906 28.191406 -14.929688 26.765625 -13.859375 C 23.890625 -11.628906 20.90625 -10.515625 17.8125 -10.515625 L 11.296875 -10.515625 L 11.296875 -4.640625 C 11.296875 -3.835938 11.269531 -3.234375 11.21875 -2.828125 C 11.164062 -2.429688 11.003906 -1.972656 10.734375 -1.453125 C 10.242188 -0.515625 8.890625 -0.046875 6.671875 -0.046875 C 4.234375 -0.046875 2.804688 -0.691406 2.390625 -1.984375 C 2.179688 -2.566406 2.078125 -3.46875 2.078125 -4.6875 L 2.078125 -33.59375 C 2.078125 -34.382812 2.101562 -34.976562 2.15625 -35.375 C 2.207031 -35.78125 2.375 -36.242188 2.65625 -36.765625 C 3.144531 -37.703125 4.5 -38.171875 6.71875 -38.171875 L 17.859375 -38.171875 C 20.921875 -38.171875 23.890625 -37.0625 26.765625 -34.84375 C 28.191406 -33.757812 29.351562 -32.296875 30.25 -30.453125 Z M 17.859375 -19.734375 C 18.898438 -19.734375 19.925781 -20.113281 20.9375 -20.875 C 21.945312 -21.644531 22.453125 -22.789062 22.453125 -24.3125 C 22.453125 -25.84375 21.945312 -27 20.9375 -27.78125 C 19.925781 -28.5625 18.882812 -28.953125 17.8125 -28.953125 L 11.296875 -28.953125 L 11.296875 -19.734375 Z M 17.859375 -19.734375 "/></g></g></g><g fill="#ffffff" fill-opacity="1"><g transform="translate(83.040307, 236.893535)"><g><path d="M 13.453125 -2.796875 L 13.453125 0 L 1.78125 0 L 1.78125 -15.0625 L 13.171875 -15.0625 L 13.171875 -12.265625 L 5.25 -12.265625 L 5.25 -9 L 12.25 -9 L 12.25 -6.28125 L 5.25 -6.28125 L 5.25 -2.796875 Z M 13.453125 -2.796875 "/></g></g></g><g fill="#ffffff" fill-opacity="1"><g transform="translate(114.691398, 236.893535)"><g><path d="M 6.734375 0.265625 C 5.546875 0.265625 4.394531 0.101562 3.28125 -0.21875 C 2.164062 -0.539062 1.273438 -0.960938 0.609375 -1.484375 L 1.78125 -4.109375 C 2.425781 -3.640625 3.191406 -3.257812 4.078125 -2.96875 C 4.972656 -2.675781 5.863281 -2.53125 6.75 -2.53125 C 7.738281 -2.53125 8.46875 -2.675781 8.9375 -2.96875 C 9.414062 -3.269531 9.65625 -3.664062 9.65625 -4.15625 C 9.65625 -4.507812 9.515625 -4.804688 9.234375 -5.046875 C 8.960938 -5.285156 8.609375 -5.472656 8.171875 -5.609375 C 7.734375 -5.753906 7.140625 -5.914062 6.390625 -6.09375 C 5.242188 -6.363281 4.300781 -6.632812 3.5625 -6.90625 C 2.832031 -7.175781 2.207031 -7.613281 1.6875 -8.21875 C 1.164062 -8.820312 0.90625 -9.625 0.90625 -10.625 C 0.90625 -11.5 1.140625 -12.289062 1.609375 -13 C 2.085938 -13.71875 2.800781 -14.28125 3.75 -14.6875 C 4.707031 -15.101562 5.875 -15.3125 7.25 -15.3125 C 8.207031 -15.3125 9.144531 -15.195312 10.0625 -14.96875 C 10.988281 -14.738281 11.796875 -14.410156 12.484375 -13.984375 L 11.40625 -11.34375 C 10.007812 -12.125 8.617188 -12.515625 7.234375 -12.515625 C 6.253906 -12.515625 5.53125 -12.359375 5.0625 -12.046875 C 4.601562 -11.734375 4.375 -11.316406 4.375 -10.796875 C 4.375 -10.285156 4.640625 -9.898438 5.171875 -9.640625 C 5.710938 -9.390625 6.535156 -9.144531 7.640625 -8.90625 C 8.785156 -8.632812 9.722656 -8.363281 10.453125 -8.09375 C 11.179688 -7.820312 11.804688 -7.390625 12.328125 -6.796875 C 12.859375 -6.210938 13.125 -5.414062 13.125 -4.40625 C 13.125 -3.550781 12.882812 -2.765625 12.40625 -2.046875 C 11.925781 -1.335938 11.203125 -0.773438 10.234375 -0.359375 C 9.273438 0.0546875 8.109375 0.265625 6.734375 0.265625 Z M 6.734375 0.265625 "/></g></g></g><g fill="#ffffff" fill-opacity="1"><g transform="translate(145.632475, 236.893535)"><g><path d="M 6.734375 0.265625 C 5.546875 0.265625 4.394531 0.101562 3.28125 -0.21875 C 2.164062 -0.539062 1.273438 -0.960938 0.609375 -1.484375 L 1.78125 -4.109375 C 2.425781 -3.640625 3.191406 -3.257812 4.078125 -2.96875 C 4.972656 -2.675781 5.863281 -2.53125 6.75 -2.53125 C 7.738281 -2.53125 8.46875 -2.675781 8.9375 -2.96875 C 9.414062 -3.269531 9.65625 -3.664062 9.65625 -4.15625 C 9.65625 -4.507812 9.515625 -4.804688 9.234375 -5.046875 C 8.960938 -5.285156 8.609375 -5.472656 8.171875 -5.609375 C 7.734375 -5.753906 7.140625 -5.914062 6.390625 -6.09375 C 5.242188 -6.363281 4.300781 -6.632812 3.5625 -6.90625 C 2.832031 -7.175781 2.207031 -7.613281 1.6875 -8.21875 C 1.164062 -8.820312 0.90625 -9.625 0.90625 -10.625 C 0.90625 -11.5 1.140625 -12.289062 1.609375 -13 C 2.085938 -13.71875 2.800781 -14.28125 3.75 -14.6875 C 4.707031 -15.101562 5.875 -15.3125 7.25 -15.3125 C 8.207031 -15.3125 9.144531 -15.195312 10.0625 -14.96875 C 10.988281 -14.738281 11.796875 -14.410156 12.484375 -13.984375 L 11.40625 -11.34375 C 10.007812 -12.125 8.617188 -12.515625 7.234375 -12.515625 C 6.253906 -12.515625 5.53125 -12.359375 5.0625 -12.046875 C 4.601562 -11.734375 4.375 -11.316406 4.375 -10.796875 C 4.375 -10.285156 4.640625 -9.898438 5.171875 -9.640625 C 5.710938 -9.390625 6.535156 -9.144531 7.640625 -8.90625 C 8.785156 -8.632812 9.722656 -8.363281 10.453125 -8.09375 C 11.179688 -7.820312 11.804688 -7.390625 12.328125 -6.796875 C 12.859375 -6.210938 13.125 -5.414062 13.125 -4.40625 C 13.125 -3.550781 12.882812 -2.765625 12.40625 -2.046875 C 11.925781 -1.335938 11.203125 -0.773438 10.234375 -0.359375 C 9.273438 0.0546875 8.109375 0.265625 6.734375 0.265625 Z M 6.734375 0.265625 "/></g></g></g><g fill="#ffffff" fill-opacity="1"><g transform="translate(176.573549, 236.893535)"><g><path d="M 13.453125 -2.796875 L 13.453125 0 L 1.78125 0 L 1.78125 -15.0625 L 13.171875 -15.0625 L 13.171875 -12.265625 L 5.25 -12.265625 L 5.25 -9 L 12.25 -9 L 12.25 -6.28125 L 5.25 -6.28125 L 5.25 -2.796875 Z M 13.453125 -2.796875 "/></g></g></g><g fill="#ffffff" fill-opacity="1"><g transform="translate(208.224644, 236.893535)"><g><path d="M 15.59375 -15.0625 L 15.59375 0 L 12.734375 0 L 5.234375 -9.140625 L 5.234375 0 L 1.78125 0 L 1.78125 -15.0625 L 4.671875 -15.0625 L 12.15625 -5.921875 L 12.15625 -15.0625 Z M 15.59375 -15.0625 "/></g></g></g><g fill="#ffffff" fill-opacity="1"><g transform="translate(242.823381, 236.893535)"><g><path d="M 9 0.265625 C 7.457031 0.265625 6.066406 -0.0664062 4.828125 -0.734375 C 3.585938 -1.410156 2.613281 -2.335938 1.90625 -3.515625 C 1.195312 -4.703125 0.84375 -6.039062 0.84375 -7.53125 C 0.84375 -9.019531 1.195312 -10.351562 1.90625 -11.53125 C 2.613281 -12.71875 3.585938 -13.644531 4.828125 -14.3125 C 6.066406 -14.976562 7.460938 -15.3125 9.015625 -15.3125 C 10.316406 -15.3125 11.492188 -15.082031 12.546875 -14.625 C 13.609375 -14.164062 14.5 -13.507812 15.21875 -12.65625 L 12.96875 -10.578125 C 11.957031 -11.753906 10.695312 -12.34375 9.1875 -12.34375 C 8.25 -12.34375 7.414062 -12.140625 6.6875 -11.734375 C 5.957031 -11.328125 5.390625 -10.753906 4.984375 -10.015625 C 4.578125 -9.285156 4.375 -8.457031 4.375 -7.53125 C 4.375 -6.59375 4.578125 -5.757812 4.984375 -5.03125 C 5.390625 -4.300781 5.957031 -3.734375 6.6875 -3.328125 C 7.414062 -2.921875 8.25 -2.71875 9.1875 -2.71875 C 10.695312 -2.71875 11.957031 -3.3125 12.96875 -4.5 L 15.21875 -2.4375 C 14.5 -1.5625 13.609375 -0.890625 12.546875 -0.421875 C 11.484375 0.0351562 10.300781 0.265625 9 0.265625 Z M 9 0.265625 "/></g></g></g><g fill="#ffffff" fill-opacity="1"><g transform="translate(275.808444, 236.893535)"><g><path d="M 13.453125 -2.796875 L 13.453125 0 L 1.78125 0 L 1.78125 -15.0625 L 13.171875 -15.0625 L 13.171875 -12.265625 L 5.25 -12.265625 L 5.25 -9 L 12.25 -9 L 12.25 -6.28125 L 5.25 -6.28125 L 5.25 -2.796875 Z M 13.453125 -2.796875 "/></g></g></g></svg>