<?xml version="1.0" encoding="UTF-8"?>
<svg version="1.1" xmlns="http://www.w3.org/2000/svg" width="512" height="512">
<path d="M0 0 C1.35641602 -0.0309375 1.35641602 -0.0309375 2.74023438 -0.0625 C17.33999861 -0.14598686 30.48835392 6.21129501 40.9375 16.25 C48.21012013 24.64344425 52.35494632 33.91310841 56.16210938 44.21484375 C64.87014514 67.77260296 80.31821071 83.83543189 102.9375 95.25 C118.2656699 102.22035312 133.03176355 104.4704488 149.9375 106.25 C149.9375 120.77 149.9375 135.29 149.9375 150.25 C109.90573739 150.25 72.11260494 135.32552165 43.62109375 107.13134766 C40.70031874 104.19602419 37.80582669 101.23657695 34.9375 98.25 C29.74331248 125.54823745 24.83475785 152.89718049 19.9375 180.25 C20.53570557 180.52980713 21.13391113 180.80961426 21.75024414 181.09790039 C25.01067148 182.81527472 27.62250473 185.26933128 30.375 187.6875 C31.62988903 188.77640975 32.88510476 189.8649431 34.140625 190.953125 C34.77419922 191.50419922 35.40777344 192.05527344 36.06054688 192.62304688 C38.89761834 195.08223577 41.75861567 197.5125968 44.625 199.9375 C45.15456299 200.38673828 45.68412598 200.83597656 46.22973633 201.29882812 C48.82650243 203.49483159 51.43936343 205.66591856 54.08984375 207.796875 C55.07082031 208.58578125 56.05179688 209.3746875 57.0625 210.1875 C57.93132812 210.87714844 58.80015625 211.56679688 59.6953125 212.27734375 C63.441769 215.57344224 65.32919116 218.79725985 66.99609375 223.47851562 C67.37567734 224.53349243 67.75526093 225.58846924 68.14634705 226.67541504 C68.75453026 228.39842834 68.75453026 228.39842834 69.375 230.15625 C70.03893828 232.00946023 70.70287905 233.86266958 71.36691952 235.7158432 C72.07467316 237.69507132 72.77904804 239.67547228 73.48245239 241.65625 C74.94469289 245.77337338 76.41642061 249.88705992 77.89038086 254 C78.3904271 255.39550765 78.89047288 256.79101546 79.39051819 258.18652344 C79.63946398 258.88120728 79.88840977 259.57589111 80.14489937 260.29162598 C80.90625315 262.41716423 81.66672518 264.54301616 82.42698669 266.66894531 C86.99374302 279.43497914 91.62215768 292.17792118 96.27905273 304.91137695 C97.47321139 308.1767478 98.66538503 311.44283848 99.85742188 314.70898438 C100.59365953 316.72268933 101.3299842 318.73636247 102.06640625 320.75 C102.57960922 322.15759583 102.57960922 322.15759583 103.10317993 323.59362793 C104.55398003 327.55660176 106.02137295 331.50593505 107.60498047 335.41796875 C108.07436035 336.57941406 108.54374023 337.74085938 109.02734375 338.9375 C109.42687256 339.89011719 109.82640137 340.84273438 110.23803711 341.82421875 C111.02555773 344.55538975 110.97207512 345.63594609 109.9375 348.25 C108.33665466 349.26251221 108.33665466 349.26251221 106.24389648 349.98925781 C105.46316269 350.26924622 104.68242889 350.54923462 103.8780365 350.83770752 C103.03012039 351.12329529 102.18220428 351.40888306 101.30859375 351.703125 C100.01224754 352.16075226 100.01224754 352.16075226 98.68971252 352.62762451 C95.92320034 353.60032051 93.14948386 354.55031065 90.375 355.5 C88.50013407 356.15477157 86.62577743 356.81100344 84.75195312 357.46875 C80.1528779 359.0795157 75.54721653 360.6699588 70.9375 362.25 C68.68486604 359.99736604 68.13524827 358.45683581 67.06835938 355.47631836 C66.70552856 354.47168045 66.34269775 353.46704254 65.96887207 352.43196106 C65.57695679 351.32906235 65.1850415 350.22616364 64.78125 349.08984375 C64.36645386 347.93719528 63.95165771 346.78454681 63.52429199 345.5969696 C62.62655889 343.10065636 61.7308337 340.60372507 60.83837891 338.10552979 C59.43345438 334.17347653 58.02046496 330.24435645 56.60546875 326.31591797 C56.36876968 325.65871513 56.13207062 325.0015123 55.88819885 324.32439423 C55.40708814 322.98861581 54.92595301 321.65284618 54.4447937 320.31708527 C53.71472229 318.28959586 52.98533423 316.26186174 52.25610352 314.23406982 C47.9083404 302.14732105 43.51574792 290.07722397 39.09057617 278.01858521 C38.32915051 275.94274103 37.56887369 273.86647506 36.80981445 271.7897644 C34.54698478 265.59915246 32.25896783 259.41885519 29.9375 253.25 C29.56816849 252.25546814 29.56816849 252.25546814 29.19137573 251.24084473 C26.15565037 242.9115281 26.15565037 242.9115281 20 236.75 C19.04222656 236.0384375 18.08445312 235.326875 17.09765625 234.59375 C16.05480469 233.8203125 15.01195312 233.046875 13.9375 232.25 C11.57117576 230.28771558 9.25515212 228.26936551 6.9375 226.25 C2.81501014 222.69303619 -1.33468539 219.18199069 -5.5625 215.75 C-10.40846789 211.8162143 -15.14348528 207.76552241 -19.87109375 203.69140625 C-23.39567903 200.66041716 -26.95298832 197.68007419 -30.5625 194.75 C-32.39728362 193.25177432 -34.23050549 191.75163485 -36.0625 190.25 C-36.63033203 189.7859375 -37.19816406 189.321875 -37.78320312 188.84375 C-49.74021028 179.02237942 -58.15212193 170.61910679 -61.8125 155.0625 C-62.55474281 146.71226842 -61.35449671 139.13880353 -59.875 130.921875 C-59.53590604 128.98691625 -59.19681544 127.05195691 -58.85792542 125.11696243 C-58.38501094 122.42632225 -57.90597675 119.73678633 -57.42687988 117.04724121 C-56.58615026 112.32366452 -55.75205603 107.59892194 -54.92260742 102.87335205 C-54.48115433 100.36191658 -54.03612186 97.85110712 -53.5871582 95.34100342 C-53.28684692 93.63838348 -53.28684692 93.63838348 -52.98046875 91.90136719 C-52.80281982 90.9040155 -52.6251709 89.90666382 -52.44213867 88.87908936 C-51.967222 86.03290317 -51.967222 86.03290317 -52.0625 82.25 C-61.13529731 87.95930782 -66.96484543 94.60352582 -73.0625 103.25 C-73.85822757 104.35629497 -74.65509635 105.46177002 -75.453125 106.56640625 C-77.10195253 108.85664874 -78.74015814 111.15401544 -80.37109375 113.45703125 C-84.99934042 119.9890957 -89.68648362 126.4782361 -94.39697266 132.95117188 C-96.08213543 135.27710161 -97.75004483 137.61481365 -99.41796875 139.953125 C-100.48623638 141.42762176 -101.55521788 142.90160166 -102.625 144.375 C-103.35759033 145.41503174 -103.35759033 145.41503174 -104.10498047 146.47607422 C-105.50390625 148.3828125 -105.50390625 148.3828125 -108.0625 151.25 C-112.75798026 151.25 -114.62131811 149.75778703 -118.1875 147.0625 C-119.42177726 146.15481499 -120.65615781 145.24727044 -121.890625 144.33984375 C-122.55384766 143.84726074 -123.21707031 143.35467773 -123.90039062 142.84716797 C-127.88601586 139.90295385 -131.91626693 137.02027185 -135.9375 134.125 C-137.49769508 132.99780992 -139.05761602 131.87024023 -140.6171875 130.7421875 C-141.28218262 130.26120605 -141.94717773 129.78022461 -142.63232422 129.28466797 C-143.10428223 128.94322754 -143.57624023 128.60178711 -144.0625 128.25 C-143.5666233 123.50872278 -141.58511569 120.9745464 -138.625 117.3125 C-137.70366117 116.15268144 -136.78445208 114.99116843 -135.8671875 113.828125 C-135.39764648 113.23451172 -134.92810547 112.64089844 -134.44433594 112.02929688 C-132.29735226 109.26477089 -130.26979583 106.42064718 -128.25 103.5625 C-127.41674878 102.38666056 -126.58341299 101.21088104 -125.75 100.03515625 C-125.31816406 99.42559082 -124.88632813 98.81602539 -124.44140625 98.18798828 C-121.35640931 93.85216928 -118.23078678 89.5454525 -115.11035156 85.23510742 C-112.22313607 81.24583309 -109.34534077 77.25034139 -106.484375 73.2421875 C-105.90083252 72.42717773 -105.31729004 71.61216797 -104.71606445 70.77246094 C-103.59964114 69.21274022 -102.48604162 67.65099309 -101.37573242 66.08691406 C-97.17741822 60.23289846 -92.86644122 55.94153877 -86.9375 51.8125 C-85.67802157 50.92369244 -84.41892559 50.03434276 -83.16015625 49.14453125 C-82.16072998 48.43997803 -82.16072998 48.43997803 -81.14111328 47.72119141 C-77.53631282 45.16980221 -73.95518137 42.5857733 -70.375 40 C-69.6207373 39.45545166 -68.86647461 38.91090332 -68.08935547 38.34985352 C-62.55692028 34.34812471 -57.05532989 30.30585379 -51.5625 26.25 C-49.97922818 25.08455184 -48.39589489 23.9191872 -46.8125 22.75390625 C-43.61498141 20.39988464 -40.42986905 18.03013607 -37.25 15.65234375 C-25.32259907 6.79937035 -15.18630527 0.08407643 0 0 Z " fill="#000000" transform="translate(256.0625,127.75)"/>
<path d="M0 0 C4.02546654 1.88288825 7.12060644 4.52365343 10.4375 7.4375 C11.68851832 8.52246269 12.93982722 9.60709042 14.19140625 10.69140625 C14.82449707 11.24199707 15.45758789 11.79258789 16.10986328 12.35986328 C23.55361154 18.81905998 31.01758442 25.20883576 39 31 C38.4077473 35.8635942 36.92160757 40.01315546 34.9375 44.453125 C34.472229 45.50351959 34.472229 45.50351959 33.99755859 46.57513428 C33.3390383 48.05265425 32.67652231 49.52839912 32.01025391 51.00244141 C31.01273081 53.22167718 30.04325388 55.45180169 29.07421875 57.68359375 C25.17017454 66.46985936 20.91840251 73.1749289 14 80 C12.54418203 81.73479114 11.10189527 83.48127383 9.6875 85.25 C6.19567292 89.56450885 2.62423581 93.79709511 -1 98 C-4.55467214 102.12455611 -8.0679263 106.27208312 -11.5 110.5 C-14.9320848 114.72793055 -18.44564176 118.87516169 -22 123 C-29.885558 132.15758248 -37.47357037 141.54582 -45 151 C-49.1441516 149.29957416 -52.24379618 146.3585023 -55.5625 143.4375 C-56.81164737 142.35188274 -58.06165779 141.2672578 -59.3125 140.18359375 C-59.93253906 139.64589355 -60.55257812 139.10819336 -61.19140625 138.55419922 C-67.00600532 133.55747437 -73.0099627 128.7834879 -79 124 C-77.63733356 119.96194134 -75.8590849 117.45631882 -72.9375 114.375 C-68.90335746 110.01915551 -65.1176233 105.53117581 -61.3828125 100.91796875 C-58.79244248 97.74582711 -56.15321062 94.61953249 -53.5 91.5 C-50.14539595 87.55361117 -46.82777828 83.58357507 -43.5625 79.5625 C-40.10722011 75.31602901 -36.57189726 71.14804591 -33 67 C-31.4798058 65.22664083 -29.96043945 63.45257638 -28.44140625 61.67822266 C-27.51496907 60.59957611 -26.58552351 59.5235022 -25.65234375 58.45068359 C-24.4250703 57.03809936 -23.21220453 55.61303658 -22 54.1875 C-21.319375 53.39730469 -20.63875 52.60710937 -19.9375 51.79296875 C-15.48030637 45.36778035 -13.0790964 37.71715216 -10.546875 30.37109375 C-10.08924774 29.05843285 -10.08924774 29.05843285 -9.62237549 27.71925354 C-8.66131218 24.95990706 -7.705568 22.1987537 -6.75 19.4375 C-6.09410284 17.55130956 -5.43785601 15.66524067 -4.78125 13.77929688 C-3.18345869 9.18759168 -1.59043066 4.59425963 0 0 Z " fill="#000000" transform="translate(202,330)"/>
<path d="M0 0 C9.69242413 6.95288386 16.11995831 16.46391612 18.3125 28.3125 C19.20255131 42.86141557 16.76980464 53.93664943 7.56640625 65.5078125 C-0.19106129 73.99103064 -10.71951215 78.49452433 -22.04296875 79.52734375 C-35.05380048 80.04446743 -46.26621765 75.42536249 -55.875 66.8125 C-65.0689195 57.15140979 -68.21927164 45.22666781 -67.96484375 32.23828125 C-67.1419928 20.59088401 -61.83209893 11.03750897 -53.5 3.0625 C-38.22170141 -9.91110609 -16.69195647 -10.15663114 0 0 Z " fill="#000000" transform="translate(312.6875,38.6875)"/>
</svg>
