<?xml version="1.0" encoding="UTF-8"?>
<svg id="Layer_3" data-name="Layer 3" xmlns="http://www.w3.org/2000/svg" viewBox="0 0 915.37 367.39">
  <defs>
    <style>
      .cls-1 {
        fill: #fff;
      }
    </style>
  </defs>
  <path class="cls-1" d="M709.95,25.98c-59.49,0-107.71,48.23-107.71,107.74s48.23,107.71,107.71,107.71,107.74-48.23,107.74-107.71-48.23-107.74-107.74-107.74Zm-74.18,149.17c-6.89-12.25-10.81-26.39-10.81-41.43,0-46.89,38.13-85.01,84.99-85.01,15.05,0,29.19,3.91,41.46,10.81,0,0,0,0,0,0l-115.64,115.64s0,0,0,0Zm5.58,8.71l118.75-118.75c4.04,2.95,7.8,6.23,11.25,9.84l-120.13,120.14c-3.61-3.46-6.89-7.22-9.87-11.23Zm68.6,34.84c-19.14,0-36.78-6.36-51-17.07l118.94-118.94s0,0,0,.01c10.71,14.22,17.07,31.89,17.07,51,0,46.86-38.13,84.99-85.01,84.99Z"/>
  <path class="cls-1" d="M450.04,46.38h31.13l-86.73,86.73c-11.62-4.29-24.17-6.64-37.27-6.64-54.56,0-99.66,40.57-106.75,93.22l-102.54,102.53-1.01,1.01h-25.73v-.29l.13-.12c-.08,.25-.13,.41-.13,.41l34.17-33.74,57.52-56.81s4.06-5.07,8.4-13.04c3.71-6.81,7.61-15.72,9.35-25.4,.01-.05,.02-.11,.03-.17,.87-4.89,1.19-9.97,.65-15.06-.13-9.07-2.51-18.29-8.64-26.74-.03-.02-.05-.07-.08-.1-1.08-1.49-2.29-2.95-3.63-4.39-.46-.51-.94-1.01-1.44-1.52h-.03c-5.12-5.32-11.1-9.81-17.71-13.25-1.42-.74-2.86-1.43-4.34-2.07-8.34-3.62-17.55-5.63-27.23-5.63-30.25,0-55.94,19.62-65.02,46.81-.45,1.37-.87,2.75-1.24,4.16l22.22,5.03c5.46-19.19,23.13-33.28,44.04-33.28,6.37,0,12.44,1.3,17.95,3.68,8.68,3.71,15.99,10.03,20.93,17.98v.03c2.14,4.73,3.01,9.53,3.01,14.21,0,20.73-17.1,39.19-17.1,39.19l-15.2,15.45-22.19,22.55-54.72,55.63-3.15,3.2v22.93H232.62v-19.65h-36.11l1.01-1.01,56.61-56.58c13.46,44.14,54.49,76.28,103.04,76.28,59.51,0,107.74-48.25,107.74-107.74,0-.5,0-.98-.03-1.49,11.14,5.58,23.74,8.74,37.07,8.74,45.65,0,82.66-37.02,82.66-82.67,0-30.57-16.61-57.29-41.28-71.58l41.84-40.57V24.51h-135.13v21.87ZM183.28,322.22l-1.01,1.01h-21.11l1.01-1.01,87.29-87.28c.05,6.56,.68,12.98,1.87,19.21l-68.05,68.07Zm89.81-75.54v-.03c-.25-1.66-.43-3.35-.58-5.05-.23-2.45-.33-4.92-.33-7.42,0-46.86,38.13-84.99,84.99-84.99,16.94,0,32.74,4.98,46,13.56l-117.43,117.43c-6.44-9.95-10.86-21.28-12.65-33.5Zm29.19,52.31c-3.79-3.18-7.3-6.71-10.5-10.55-.01,0-.01-.01-.01-.01l119.64-119.64c3.76,3.1,7.22,6.54,10.37,10.22,.08,.1,.15,.18,.23,.28l-119.72,119.71s0,0,0-.01Zm54.89,20.2c-17.24,0-33.32-5.17-46.73-14.06l117.68-117.68c5.13,7.7,9.01,16.31,11.39,25.5v.02c1.74,6.77,2.67,13.89,2.67,21.21,0,46.86-38.12,85.01-85.01,85.01ZM557.14,46.38l-33.71,32.54-20.65,19.93-23.51,22.69,8.11,19.9,38.71-37.52c21.05,9.27,35.8,30.38,35.8,54.84,0,33.05-26.89,59.94-59.94,59.94-16.44,0-31.34-6.64-42.17-17.37-3.76-11.81-9.54-22.75-16.89-32.39-4.95-6.52-10.65-12.45-16.97-17.65l104.91-104.91h26.31Zm-40.57,0l-98.8,98.8c-4.24-2.91-8.69-5.51-13.33-7.78l91.02-91.02h21.11Z"/>
  <path class="cls-1" d="M110.81,60c1.29,.24,2.99,.32,4.85,.32,7.03,0,13.25-1.86,17.21-5.82,3.07-2.91,4.68-7.19,4.68-12.36s-2.1-9.37-5.33-12.04c-3.47-2.91-8.81-4.44-16.08-4.44-6.7,0-11.63,.48-15.19,1.13v53.73h9.86v-20.52Zm0-26.26c1.05-.24,2.99-.48,5.74-.48,6.87,0,11.07,3.23,11.07,9.29,0,6.38-4.52,10.02-11.96,10.02-2.02,0-3.64-.08-4.85-.4v-18.42Z"/>
  <polygon class="cls-1" points="182.8 72.36 159.86 72.36 159.86 56.36 180.37 56.36 180.37 48.28 159.86 48.28 159.86 34.23 181.59 34.23 181.59 26.07 149.92 26.07 149.92 80.52 182.8 80.52 182.8 72.36"/>
  <path class="cls-1" d="M204.46,61.05c0-8.97-.08-16.16-.49-23.19l.24-.08c2.67,6.14,6.3,12.85,9.77,18.82l14.22,23.91h10.26V26.07h-9.21v18.99c0,8.32,.24,15.35,.89,22.62h-.16c-2.51-5.9-5.66-12.2-9.29-18.26l-14.06-23.35h-11.31v54.45h9.13v-19.47Z"/>
  <path class="cls-1" d="M264.65,65.09h17.29l4.93,15.43h10.66l-17.69-54.45h-12.69l-17.45,54.45h10.26l4.69-15.43Zm5.82-20.93c.97-3.23,1.78-7.03,2.58-10.18h.16c.81,3.15,1.7,6.87,2.75,10.18l4.28,13.41h-13.98l4.2-13.41Z"/>
  <path class="cls-1" d="M318.05,61.05c0-8.97-.08-16.16-.49-23.19l.24-.08c2.67,6.14,6.3,12.85,9.77,18.82l14.22,23.91h10.26V26.07h-9.21v18.99c0,8.32,.24,15.35,.89,22.62h-.16c-2.51-5.9-5.66-12.2-9.29-18.26l-14.06-23.35h-11.31v54.45h9.13v-19.47Z"/>
  <path class="cls-1" d="M393.44,81.08c7.27,0,14.06-1.78,17.53-3.07v-27.55h-19.23v7.84h9.61v13.57c-1.29,.65-3.96,1.13-7.52,1.13-11.31,0-18.9-7.35-18.9-19.71s8.16-19.55,19.79-19.55c5.74,0,9.37,1.05,12.36,2.34l2.18-8c-2.51-1.21-7.76-2.59-14.46-2.59-18.02,0-30.3,11.07-30.3,28.28-.08,8.24,2.75,15.43,7.59,20.04,5.17,4.93,12.12,7.27,21.33,7.27Z"/>
</svg>